<?xml version="1.0" encoding="UTF-8"?>
<svg version="1.1" xmlns="http://www.w3.org/2000/svg" width="371" height="372">
<path d="M0 0 C122.43 0 244.86 0 371 0 C371 122.76 371 245.52 371 372 C248.57 372 126.14 372 0 372 C0 249.24 0 126.48 0 0 Z " fill="#FEFEFE" transform="translate(0,0)"/>
<path d="M0 0 C4.00521387 2.88747977 7.46370991 6.48991981 9.6875 10.9375 C9.92578125 13.07421875 9.92578125 13.07421875 10 15.625 C10.05607422 16.86830078 10.05607422 16.86830078 10.11328125 18.13671875 C9.03678955 25.21786139 3.9425903 30.10536513 -0.96118164 34.91088867 C-1.94969368 35.89764839 -1.94969368 35.89764839 -2.95817566 36.90434265 C-5.12276554 39.06178597 -7.29766884 41.20851246 -9.47265625 43.35546875 C-10.98505726 44.85972675 -12.49671932 46.36472803 -14.00767517 47.87043762 C-17.97685726 51.82254329 -21.95453024 55.76598546 -25.93450928 59.70721436 C-32.310088 66.02347795 -38.67293898 72.35255728 -45.0352459 78.68218422 C-47.25662222 80.88961387 -49.48177744 83.0931772 -51.70753479 85.29618835 C-53.06951053 86.64814023 -54.43140749 88.00017147 -55.79321289 89.35229492 C-56.4119931 89.96276672 -57.03077332 90.57323853 -57.66830444 91.20220947 C-59.98963176 93.51148955 -62.14520138 95.71115313 -64.09495544 98.34907532 C-64.49674515 98.87325546 -64.89853485 99.39743561 -65.3125 99.9375 C-65.9725 99.9375 -66.6325 99.9375 -67.3125 99.9375 C-67.3125 100.5975 -67.3125 101.2575 -67.3125 101.9375 C-68.7109375 103.3125 -68.7109375 103.3125 -70.6875 104.9375 C-79.58052215 112.04520775 -79.58052215 112.04520775 -86.3125 120.9375 C-86.9725 120.9375 -87.6325 120.9375 -88.3125 120.9375 C-88.3125 121.5975 -88.3125 122.2575 -88.3125 122.9375 C-89.80859375 124.375 -89.80859375 124.375 -91.75 125.9375 C-94.46438238 128.08275044 -94.46438238 128.08275044 -96.3125 130.9375 C-96.9725 130.9375 -97.6325 130.9375 -98.3125 130.9375 C-98.57675781 131.54078125 -98.84101562 132.1440625 -99.11328125 132.765625 C-100.37005074 135.0417287 -101.46690162 136.10568433 -103.5 137.6875 C-106.86572316 140.45641452 -109.61221455 143.47567751 -112.41796875 146.80078125 C-114.49960594 149.14852463 -116.72661462 151.27573747 -119 153.4375 C-126.47103482 160.80671492 -128.54054835 168.26784346 -128.625 178.5625 C-128.625 194.13560756 -121.41910323 202.96895158 -110.66259766 213.78271484 C-109.07938154 215.36133098 -107.49065983 216.9340434 -105.89760208 218.50272751 C-104.18602296 220.18836254 -102.48113771 221.88053217 -100.77767944 223.57437134 C-97.16994788 227.15948206 -93.55430786 230.73654916 -89.9375 234.3125 C-85.72139218 238.48128274 -81.50865597 242.65336449 -77.30421066 246.8339119 C-75.62756932 248.49763112 -73.9450076 250.15519892 -72.26211548 251.81259155 C-71.23646124 252.83098234 -70.21108585 253.84965407 -69.18603516 254.86865234 C-68.2908316 255.75338226 -67.39562805 256.63811218 -66.47329712 257.5496521 C-62.36355013 262.0912403 -61.92219324 265.50084964 -62.0625 271.47265625 C-62.66821004 277.44457868 -65.93904377 281.09739209 -70.3125 284.9375 C-73.52021694 286.91995167 -76.00253317 287.20829038 -79.75 287.1875 C-80.67683594 287.19265625 -81.60367188 287.1978125 -82.55859375 287.203125 C-88.61929778 286.61854646 -92.02397496 283.6659129 -96.18505859 279.46899414 C-96.75000534 278.91091064 -97.31495209 278.35282715 -97.89701843 277.77783203 C-99.75940153 275.93372076 -101.61051422 274.07876267 -103.4609375 272.22265625 C-104.75945215 270.92870633 -106.05833705 269.63512788 -107.35757446 268.34190369 C-110.08101238 265.62740005 -112.79869657 262.90728947 -115.51269531 260.18334961 C-118.96942675 256.71518511 -122.44165095 253.26302762 -125.91870689 249.81525517 C-128.60776902 247.14466824 -131.28731885 244.46468933 -133.96431351 241.78201103 C-135.23930682 240.50686558 -136.51735768 239.23476895 -137.79865646 237.96595955 C-145.01656804 230.80848529 -151.35777679 223.91800262 -156.3125 214.9375 C-156.71246185 214.21583145 -157.11242371 213.4941629 -157.52450562 212.75062561 C-166.16486024 196.69102702 -168.71130594 176.6550203 -163.82739258 158.95263672 C-158.04315195 141.30198561 -146.57483449 128.89410466 -133.71777344 116.08398438 C-132.46160305 114.82509839 -131.20585732 113.56578856 -129.95050049 112.30609131 C-126.56702673 108.91356458 -123.17733611 105.52731619 -119.78615093 102.14249992 C-116.2296091 98.59104831 -112.67797958 95.03468938 -109.12554932 91.47912598 C-103.16769262 85.51764126 -97.20565443 79.5603629 -91.24121094 73.60546875 C-84.34589302 66.72106313 -77.45784984 59.82944184 -70.57348228 52.93408728 C-64.6525702 47.00410484 -58.7277768 41.07802152 -52.79970956 35.1551919 C-49.26305608 31.62165565 -45.72776615 28.08678367 -42.19597626 24.54838562 C-38.8811427 21.22778189 -35.56146848 17.9120953 -32.23796844 14.60016632 C-31.01880474 13.38364966 -29.80134449 12.16542312 -28.58570862 10.94538116 C-26.92806927 9.28228757 -25.26441019 7.62545985 -23.59906006 5.97009277 C-22.20430262 4.57646641 -22.20430262 4.57646641 -20.78136826 3.15468597 C-14.75553413 -2.25686034 -7.57403714 -2.42940814 0 0 Z " fill="#090908" transform="translate(224.3125,36.0625)"/>
<path d="M0 0 C1.29836288 -0.00671722 2.59672577 -0.01343445 3.93443298 -0.02035522 C7.47978187 -0.03794752 11.02503409 -0.04270754 14.57042241 -0.0439868 C16.78784318 -0.04541204 19.00523964 -0.04968853 21.22265434 -0.05498123 C28.96485826 -0.07345437 36.70699352 -0.08165467 44.44921875 -0.08007812 C51.65719465 -0.07887529 58.86487181 -0.10001212 66.07277209 -0.13156545 C72.27169608 -0.15773158 78.47052245 -0.16844539 84.66950125 -0.16716731 C88.36746751 -0.16665806 92.06516764 -0.17232128 95.76307869 -0.19352341 C99.88522892 -0.21651618 104.00670959 -0.20738298 108.12890625 -0.1953125 C109.95955124 -0.21217102 109.95955124 -0.21217102 111.82717896 -0.22937012 C119.42252827 -0.17276422 123.20553672 0.5233454 128.64428711 5.92333984 C132.84615153 11.2916081 133.77572972 14.53308829 132.99975586 21.29052734 C130.79260998 28.13987679 126.87476182 31.3738567 120.99975586 35.29052734 C118.51058578 35.55058956 118.51058578 35.55058956 115.48504639 35.56468201 C114.33829941 35.57465714 113.19155243 35.58463226 112.01005554 35.59490967 C110.75078751 35.59557434 109.49151947 35.59623901 108.1940918 35.59692383 C106.85526568 35.60454497 105.51644394 35.61297239 104.17762756 35.62214661 C100.53901307 35.64410727 96.90048263 35.65289296 93.26180935 35.65797305 C90.98744904 35.66161578 88.71311076 35.6678555 86.43875885 35.67497444 C78.50091077 35.69947757 70.5631281 35.71252201 62.62524414 35.71606445 C55.2321353 35.71969704 47.83944229 35.74956995 40.44646049 35.79146904 C34.09558562 35.82619699 27.74484833 35.84161335 21.39387918 35.84231049 C17.60241625 35.84310268 13.81137653 35.85181316 10.0200119 35.88030815 C6.45097698 35.90653126 2.88271473 35.90867132 -0.68637276 35.89265251 C-2.61377449 35.88998024 -4.54116144 35.91199466 -6.46842957 35.93484497 C-13.68527096 35.87399778 -17.65652653 35.27387404 -23.00024414 30.29052734 C-27.03311819 25.49959426 -27.62257744 19.93681038 -27.39477539 13.84521484 C-26.83414491 10.21499372 -25.39634016 8.0289228 -23.00024414 5.29052734 C-22.56711914 4.71302734 -22.13399414 4.13552734 -21.68774414 3.54052734 C-15.59896762 -0.96967749 -7.15501567 -0.00532262 0 0 Z " fill="#B4B2B1" transform="translate(180.000244140625,197.70947265625)"/>
<path d="M0 0 C5.40444463 3.13315833 9.87425573 7.0212047 11.89453125 13.08203125 C12.81682514 18.20705073 12.33556362 22.06383245 9.3515625 26.37890625 C4.05625893 33.61689333 -2.40255389 39.82653883 -8.75610352 46.1237793 C-10.91322973 48.26482755 -13.05385203 50.42143956 -15.19335938 52.58007812 C-32.53822142 69.95473651 -50.49850559 81.2292433 -75.66796875 81.45703125 C-90.01164416 81.31451517 -105.62317446 77.8261512 -116.57421875 67.828125 C-117.07953125 67.25191406 -117.58484375 66.67570312 -118.10546875 66.08203125 C-117.22503906 66.11683594 -116.34460938 66.15164063 -115.4375 66.1875 C-113.69533203 66.22810547 -113.69533203 66.22810547 -111.91796875 66.26953125 C-110.19513672 66.32173828 -110.19513672 66.32173828 -108.4375 66.375 C-104.80977668 66.05603253 -103.07777318 65.09348416 -100.10546875 63.08203125 C-99.44546875 63.08203125 -98.78546875 63.08203125 -98.10546875 63.08203125 C-97.41926844 61.75864493 -96.75760414 60.42253177 -96.10546875 59.08203125 C-95.73421875 58.38078125 -95.36296875 57.67953125 -94.98046875 56.95703125 C-93.25534952 51.28878234 -93.34310262 45.92441606 -95.60546875 40.45703125 C-96.10046875 39.67328125 -96.59546875 38.88953125 -97.10546875 38.08203125 C-96.58984375 38.35015625 -96.07421875 38.61828125 -95.54296875 38.89453125 C-85.12295066 43.97095032 -75.05519568 46.09427768 -63.6640625 43.2109375 C-53.94316176 39.42437974 -47.45582928 32.50677013 -40.26171875 25.1953125 C-39.64389526 24.56745346 -39.02607178 23.93959442 -38.38952637 23.29270935 C-35.80696084 20.66399704 -33.22599885 18.0339809 -30.65966797 15.3894043 C-28.76543873 13.44039121 -26.85848759 11.50458039 -24.94921875 9.5703125 C-24.38126587 8.97857742 -23.81331299 8.38684235 -23.22814941 7.7771759 C-17.03427034 1.54384501 -8.8830552 -3.87294614 0 0 Z " fill="#F7A01F" transform="translate(255.10546875,255.91796875)"/>
<path d="M0 0 C0.495 0.99 0.495 0.99 1 2 C2.3202327 2.3819352 3.65787516 2.70404427 5 3 C23.78525836 9.503663 37.24387056 24.05640885 50.99438477 37.80908203 C52.58789068 39.40035511 54.18931645 40.98338508 55.79101562 42.56640625 C56.82079904 43.5932623 57.85011417 44.62058825 58.87890625 45.6484375 C59.7922876 46.55770996 60.70566895 47.46698242 61.64672852 48.40380859 C66.87915879 54.1763642 67.54137791 58.25405324 67.3515625 65.8984375 C66.74440755 71.25489338 64.3729407 73.76435337 60.5 77.25 C56.88824256 79.77823021 54.14929083 81.29574972 49.6875 81.375 C48.96949219 81.40335937 48.25148438 81.43171875 47.51171875 81.4609375 C40.11707825 80.10391172 35.1983943 74.54457302 30.23046875 69.34765625 C28.74961189 67.83372714 27.2684836 66.3200635 25.78710938 64.80664062 C23.48545928 62.4368407 21.1880927 60.06311531 18.89624023 57.68383789 C16.66462657 55.37313149 14.41731164 53.07858948 12.16796875 50.78515625 C11.49783249 50.0798024 10.82769623 49.37444855 10.13725281 48.64772034 C5.29012422 43.72640726 0.34363053 40.69657282 -6 38 C-7.2746386 37.44814781 -7.2746386 37.44814781 -8.57502747 36.88514709 C-11.91032275 35.66772014 -15.12012139 35.66082157 -18.625 35.6875 C-19.6759082 35.68943359 -19.6759082 35.68943359 -20.74804688 35.69140625 C-26.80451846 35.80222915 -32.28532731 36.96596396 -38 39 C-33.69372744 33.85170256 -29.17688069 29.04247928 -24.4140625 24.31640625 C-23.71227875 23.61603745 -23.010495 22.91566864 -22.28744507 22.19407654 C-20.06898864 19.98116973 -17.84706185 17.77178584 -15.625 15.5625 C-14.11044534 14.05296686 -12.59612015 12.54320343 -11.08203125 11.03320312 C-7.39066901 7.35280298 -3.69645931 3.67528043 0 0 Z " fill="#F79F1E" transform="translate(199,94)"/>
</svg>
